<svg xmlns="http://www.w3.org/2000/svg" xmlns:xlink="http://www.w3.org/1999/xlink" version="1.1" id="Capa_1" x="0px" y="0px" viewBox="0 0 468.293 468.293" style="enable-background:new 0 0 468.293 468.293;" xml:space="preserve" width="512" height="512" class=""><g><rect x="34.591" y="134.556" style="fill:#C2C6D8" width="399.098" height="291.016" data-original="#EBF0F3" class="" data-old_color="#EBF0F3"></rect><g>
	<rect x="34.591" y="284.535" style="fill:#3C564C" width="399.098" height="20.224" data-original="#64798A" class="active-path" data-old_color="#64798A"></rect>
	<path style="fill:#3C564C" d="M452.683,445.799H15.61v-7.737c0-6.897,5.591-12.488,12.488-12.488h412.098   c6.897,0,12.488,5.591,12.488,12.488V445.799z" data-original="#64798A" class="active-path" data-old_color="#64798A"></path>
</g><polygon style="fill:#44C4A1" points="122.612,22.494 66.844,22.494 0,100.412 78.049,100.412 " data-original="#E56353" class="" data-old_color="#E56353"></polygon><polygon style="fill:#BDC1D4" points="156.098,100.412 178.379,22.494 122.612,22.494 78.049,100.412 " data-original="#D5D6DB" class="" data-old_color="#D5D6DB"></polygon><polygon style="fill:#44C4A1" points="234.146,100.412 234.146,22.494 178.379,22.494 156.098,100.412 " data-original="#E56353" class="" data-old_color="#E56353"></polygon><polygon style="fill:#BDC1D4" points="312.195,100.412 289.914,22.494 234.146,22.494 234.146,100.412 " data-original="#D5D6DB" class="" data-old_color="#D5D6DB"></polygon><polygon style="fill:#44C4A1" points="390.244,100.412 345.681,22.494 289.914,22.494 312.195,100.412 " data-original="#E56353" class="" data-old_color="#E56353"></polygon><polygon style="fill:#BDC1D4" points="468.293,100.412 401.449,22.494 345.681,22.494 390.244,100.412 " data-original="#D5D6DB" class="" data-old_color="#D5D6DB"></polygon><rect x="71.805" y="235.77" style="fill:#3A556A;" width="99.902" height="117.741" data-original="#3A556A" class=""></rect><rect x="78.923" y="242.888" style="fill:#44C4A1" width="85.629" height="103.468" data-original="#44C4A1" class=""></rect><polygon style="fill:#3EA69B;" points="164.569,346.365 78.938,346.365 164.569,242.895 " data-original="#3EA69B" class=""></polygon><rect x="234.146" y="223.282" style="fill:#3A556A;" width="130.279" height="186.118" data-original="#3A556A" class=""></rect><rect x="243.45" y="232.579" style="fill:#44C4A1" width="111.672" height="167.505" data-original="#44C4A1" class=""></rect><polygon style="fill:#3EA69B;" points="355.122,400.082 243.452,400.082 355.122,232.577 " data-original="#3EA69B" class=""></polygon><path style="fill:#BDC1D4" d="M373.815,425.574H224.76v-9.942c0-3.448,2.796-6.244,6.244-6.244h136.567  c3.448,0,6.244,2.795,6.244,6.244V425.574z" data-original="#D5D6DB" class="" data-old_color="#D5D6DB"></path><path style="fill:#4FDAB4" d="M45.871,100.412L11.12,156.935c7.086,7.255,16.963,11.771,27.905,11.771  c21.553,0,39.024-17.473,39.024-39.024v-29.27H45.871z" data-original="#D15241" class="" data-old_color="#D15241"></path><path style="fill:#44C4A1" d="M0,100.412v29.27c0,10.61,4.248,20.218,11.12,27.253l34.752-56.523H0z" data-original="#E56353" class="" data-old_color="#E56353"></path><path style="fill:#B2BEC8" d="M78.049,100.412v29.27c0,10.61,4.248,20.218,11.12,27.253l34.752-56.523H78.049z" data-original="#E1E6E9" class="" data-old_color="#E1E6E9"></path><path style="fill:#BDC1D4" d="M123.92,100.412l-34.752,56.523c7.086,7.255,16.963,11.771,27.905,11.771  c21.553,0,39.024-17.473,39.024-39.024v-29.27H123.92z" data-original="#D5D6DB" class="" data-old_color="#D5D6DB"></path><path style="fill:#4FDAB4" d="M201.969,100.412l-34.752,56.523c7.086,7.255,16.963,11.771,27.905,11.771  c21.553,0,39.024-17.473,39.024-39.024v-29.27H201.969z" data-original="#D15241" class="" data-old_color="#D15241"></path><path style="fill:#44C4A1" d="M156.098,100.412v29.27c0,10.61,4.248,20.218,11.12,27.253l34.752-56.523H156.098z" data-original="#E56353" class="" data-old_color="#E56353"></path><path style="fill:#B2BEC8" d="M234.146,100.412v29.27c0,10.61,4.248,20.218,11.12,27.253l34.752-56.523H234.146z" data-original="#E1E6E9" class="" data-old_color="#E1E6E9"></path><path style="fill:#BDC1D4" d="M280.018,100.412l-34.752,56.523c7.086,7.255,16.963,11.771,27.905,11.771  c21.553,0,39.024-17.473,39.024-39.024v-29.27H280.018z" data-original="#D5D6DB" class="" data-old_color="#D5D6DB"></path><path style="fill:#44C4A1" d="M312.195,100.412v29.27c0,10.61,4.248,20.218,11.12,27.253l34.751-56.523H312.195z" data-original="#E56353" class="" data-old_color="#E56353"></path><path style="fill:#4FDAB4" d="M358.066,100.412l-34.751,56.523c7.086,7.255,16.963,11.771,27.905,11.771  c21.553,0,39.024-17.473,39.024-39.024v-29.27H358.066z" data-original="#D15241" class="" data-old_color="#D15241"></path><path style="fill:#B2BEC8" d="M390.244,100.412v29.27c0,10.61,4.248,20.218,11.12,27.253l34.752-56.523H390.244z" data-original="#E1E6E9" class="" data-old_color="#E1E6E9"></path><path style="fill:#BDC1D4" d="M436.115,100.412l-34.752,56.523c7.086,7.255,16.963,11.771,27.905,11.771  c21.553,0,39.024-17.473,39.024-39.024v-29.27H436.115z" data-original="#D5D6DB" class="" data-old_color="#D5D6DB"></path><path style="fill:#2F4859" d="M267.761,333.572c-3.451,0-6.244-2.796-6.244-6.244V300.27c0-3.448,2.793-6.244,6.244-6.244  c3.451,0,6.244,2.796,6.244,6.244v27.058C274.005,330.776,271.212,333.572,267.761,333.572z" data-original="#2F4859" class=""></path></g> </svg>